# xmcd
#
# Track frame offsets: 
#        150
#        19080
#        43380
#        76703
#        103917
#        122963
#        138488
#        155705
#        179478
#        200558
#        223081
#        242059
#
# Disc length: 3475 seconds
#
# Revision: 0
# Processed by: cddbd v1.5.2PL0 Copyright (c) Steve Scherf et al.
# Submitted via: ExactAudioCopy v1.0b1
#
DISCID=b40d910c
DTITLE=U2 - No Line on the Horizon
DYEAR=2009
DGENRE=Rock and Roll
TTITLE0=No Line on the Horizon
TTITLE1=Magnificent
TTITLE2=Moment of Surrender
TTITLE3=Unknown Caller
TTITLE4=I'll Go Crazy if I Don't Go Crazy Tonight
TTITLE5=Get on Your Boots
TTITLE6=Stand up Comedy
TTITLE7=Fez- Being Born
TTITLE8=White as Snow
TTITLE9=Breathe
TTITLE10=Cedars of Lebanon
TTITLE11=No Line on the Horizon 2
EXTD=
EXTT0=
EXTT1=
EXTT2=
EXTT3=
EXTT4=
EXTT5=
EXTT6=
EXTT7=
EXTT8=
EXTT9=
EXTT10=
EXTT11=
PLAYORDER=
